HIERARCHY
ROOT Hips
{
	OFFSET 0.000000 0.000000 0.000000
	CHANNELS 6 Xposition Yposition Zposition Zrotation Yrotation Xrotation 
	JOINT LHipJoint
	{
		OFFSET 0.000000 0.000000 0.000000
		CHANNELS 3 Zrotation Yrotation Xrotation
		JOINT LeftUpLeg
		{
			OFFSET 1.363060 -1.794630 0.839290
			CHANNELS 3 Zrotation Yrotation Xrotation
			JOINT LeftLeg
			{
				OFFSET 2.448110 -6.726130 0.000000
				CHANNELS 3 Zrotation Yrotation Xrotation
				JOINT LeftFoot
				{
					OFFSET 2.562200 -7.039590 0.000000
					CHANNELS 3 Zrotation Yrotation Xrotation
					JOINT LeftToeBase
					{
						OFFSET 0.157640 -0.433110 2.322550
						CHANNELS 3 Zrotation Yrotation Xrotation
						End Site
						{
							OFFSET 0.000000 0.000000 0.000000
						}
					}
				}
			}
		}
	}
	JOINT RHipJoint
	{
		OFFSET 0.000000 0.000000 0.000000
		CHANNELS 3 Zrotation Yrotation Xrotation
		JOINT RightUpLeg
		{
			OFFSET -1.305520 -1.794630 0.839290
			CHANNELS 3 Zrotation Yrotation Xrotation
			JOINT RightLeg
			{
				OFFSET -2.542530 -6.985550 0.000000
				CHANNELS 3 Zrotation Yrotation Xrotation
				JOINT RightFoot
				{
					OFFSET -2.568260 -7.056230 0.000000
					CHANNELS 3 Zrotation Yrotation Xrotation
					JOINT RightToeBase
					{
						OFFSET -0.164730 -0.452590 2.363150
						CHANNELS 3 Zrotation Yrotation Xrotation
						End Site
						{
							OFFSET 0.000000 0.000000 0.000000
						}
					}
				}
			}
		}
	}
	JOINT LowerBack
	{
		OFFSET 0.000000 0.000000 0.000000
		CHANNELS 3 Zrotation Yrotation Xrotation
		JOINT Spine
		{
			OFFSET 0.028270 2.035590 -0.193380
			CHANNELS 3 Zrotation Yrotation Xrotation
			JOINT Spine1
			{
				OFFSET 0.056720 2.048850 -0.042750
				CHANNELS 3 Zrotation Yrotation Xrotation
				JOINT Neck
				{
					OFFSET 0.000000 0.000000 0.000000
					CHANNELS 3 Zrotation Yrotation Xrotation
					JOINT Neck1
					{
						OFFSET -0.054170 1.746240 0.172020
						CHANNELS 3 Zrotation Yrotation Xrotation
						JOINT Head
						{
							OFFSET 0.104070 1.761360 -0.123970
							CHANNELS 3 Zrotation Yrotation Xrotation
							End Site
							{
								OFFSET 0.000000 0.000000 0.000000
							}
						}
					}
				}
				JOINT LeftShoulder
				{
					OFFSET 0.000000 0.000000 0.000000
					CHANNELS 3 Zrotation Yrotation Xrotation
					JOINT LeftArm
					{
						OFFSET 3.362410 1.200890 -0.311210
						CHANNELS 3 Zrotation Yrotation Xrotation
						JOINT LeftForeArm
						{
							OFFSET 4.983000 -0.000000 -0.000000
							CHANNELS 3 Zrotation Yrotation Xrotation
							JOINT LeftHand
							{
								OFFSET 3.483560 -0.000000 -0.000000
								CHANNELS 3 Zrotation Yrotation Xrotation
								JOINT LeftFingerBase
								{
									OFFSET 0.000000 0.000000 0.000000
									CHANNELS 3 Zrotation Yrotation Xrotation
									JOINT LeftHandIndex1
									{
										OFFSET 0.715260 -0.000000 -0.000000
										CHANNELS 3 Zrotation Yrotation Xrotation
										End Site
										{
											OFFSET 0.000000 0.000000 0.000000
										}
									}
								}
								JOINT LThumb
								{
									OFFSET 0.000000 0.000000 0.000000
									CHANNELS 3 Zrotation Yrotation Xrotation
									End Site
									{
										OFFSET 0.000000 0.000000 0.000000
									}
								}
							}
						}
					}
				}
				JOINT RightShoulder
				{
					OFFSET 0.000000 0.000000 0.000000
					CHANNELS 3 Zrotation Yrotation Xrotation
					JOINT RightArm
					{
						OFFSET -3.136600 1.374050 -0.404650
						CHANNELS 3 Zrotation Yrotation Xrotation
						JOINT RightForeArm
						{
							OFFSET -5.241900 -0.000000 -0.000000
							CHANNELS 3 Zrotation Yrotation Xrotation
							JOINT RightHand
							{
								OFFSET -3.444170 -0.000000 -0.000000
								CHANNELS 3 Zrotation Yrotation Xrotation
								JOINT RightFingerBase
								{
									OFFSET 0.000000 0.000000 0.000000
									CHANNELS 3 Zrotation Yrotation Xrotation
									JOINT RightHandIndex1
									{
										OFFSET -0.622530 -0.000000 -0.000000
										CHANNELS 3 Zrotation Yrotation Xrotation
										End Site
										{
											OFFSET 0.000000 0.000000 0.000000
										}
									}
								}
								JOINT RThumb
								{
									OFFSET 0.000000 0.000000 0.000000
									CHANNELS 3 Zrotation Yrotation Xrotation
									End Site
									{
										OFFSET 0.000000 0.000000 0.000000
									}
								}
							}
						}
					}
				}
			}
		}
	}
}
MOTION
Frames: 9
Frame Time: 0.008333
25.514348 15.928514 2.178468 154.393828 -85.952140 -129.526545 -7.786556 -1.880036 2.896289 -6.897866 -7.218473 -64.361752 -0.627408 1.934541 42.053236 2.285434 11.168683 -1.491087 2.008300 0.000000 -35.123300 11.973725 -3.815356 -1.534796 0.572930 -6.471754 4.053626 1.453057 -1.323329 15.465421 0.013220 2.248842 6.002113 0.358300 0.000001 -90.283700 -10.591039 1.890043 -0.469412 -2.958941 2.429771 -2.946477 -5.317458 2.333085 1.788185 8.116739 -2.446467 -7.129860 -2.999718 -0.227727 -0.083509 0.000000 0.000000 0.000000 -6.530706 17.620875 2.059046 -50.759430 15.105892 1.287646 -4.868683 -18.302766 -0.008565 -3.922915 0.595676 -0.022936 -0.155167 -0.100562 -0.000000 0.000000 0.000000 0.000000 0.000000 0.000000 0.000000 12.579025 2.963544 1.948785 44.740270 26.551181 29.971718 1.273452 68.749239 0.030341 6.657325 10.857128 0.657825 -0.043752 -0.330097 0.000000 0.000000 0.000000 0.000000 0.000000 0.000000 0.000000 
25.306154 15.946439 2.197517 153.610224 -85.962174 -128.803425 -7.746485 -1.816035 2.791426 -7.358166 -7.127439 -63.791385 -0.632907 1.957779 42.864372 2.314826 11.192750 -2.474122 1.790400 -0.000001 -34.664100 12.145546 -3.877687 -1.553447 0.223107 -6.792920 3.019120 1.220342 -1.598462 17.956040 -0.098405 1.930118 8.584815 0.417900 0.000000 -91.528300 -10.815265 1.852543 -0.397356 -3.006520 2.405088 -2.941910 -5.323923 2.307903 1.754423 8.142785 -2.440836 -7.087138 -3.005612 -0.228307 -0.075390 0.000000 0.000000 0.000000 -6.690688 17.248860 2.072175 -51.039302 14.318408 0.855640 -4.874142 -17.908050 -0.008143 -3.889075 0.594135 -0.022532 -0.153623 -0.095606 -0.000000 0.000000 0.000000 0.000000 0.000000 0.000000 0.000000 12.603084 2.902098 1.967178 45.173059 25.966228 30.862900 1.290227 68.523779 0.030442 6.760894 10.789343 0.663523 -0.042895 -0.324076 0.000000 0.000000 0.000000 0.000000 0.000000 0.000000 0.000000 
25.101520 15.967971 2.218189 153.066096 -85.982458 -128.320999 -7.726634 -1.749625 2.690316 -7.785763 -7.006880 -63.136007 -0.654792 1.969807 43.520590 2.335990 11.149386 -3.549118 1.541800 -0.000000 -34.342800 12.296853 -3.907902 -1.579086 -0.055212 -7.140222 1.819549 0.973882 -1.855145 20.673902 -0.254411 1.457758 11.232976 0.427501 -0.000000 -91.784100 -10.980773 1.811549 -0.315810 -3.039940 2.373823 -2.934928 -5.326577 2.276026 1.720753 8.141607 -2.414334 -7.031548 -3.011242 -0.228984 -0.063419 0.000000 0.000000 0.000000 -6.872905 16.860191 2.086476 -51.348919 13.465747 0.515674 -4.873696 -17.541619 -0.007728 -3.847294 0.608601 -0.022627 -0.151741 -0.090341 -0.000000 0.000000 0.000000 0.000000 0.000000 0.000000 0.000000 12.594084 2.848624 1.981009 45.597383 25.361913 31.758765 1.306142 68.264161 0.030464 6.902703 10.715248 0.672314 -0.042905 -0.317277 0.000000 0.000000 0.000000 0.000000 0.000000 0.000000 0.000000 
24.900216 15.992859 2.238854 152.403141 -86.004833 -127.726937 -7.699305 -1.669480 2.593370 -8.221523 -6.894296 -62.384407 -0.691786 1.966543 44.018605 2.354073 11.077269 -4.663889 1.281500 0.000000 -34.117301 12.463327 -3.894000 -1.613657 -0.328358 -7.553970 0.454342 0.721625 -2.087562 23.609684 -0.448134 0.865049 13.857959 0.374601 -0.000000 -90.910700 -11.119774 1.764394 -0.221629 -3.066257 2.334927 -2.925136 -5.325052 2.236500 1.686128 8.124147 -2.399768 -6.963327 -3.014558 -0.229618 -0.047763 0.000000 0.000000 0.000000 -7.063597 16.411008 2.100605 -51.677374 12.602514 0.289797 -4.866871 -17.247561 -0.007325 -3.792349 0.635853 -0.022919 -0.149395 -0.085087 -0.000000 0.000000 0.000000 0.000000 0.000000 0.000000 0.000000 12.564557 2.766480 1.996293 46.010091 24.780982 32.692108 1.322592 67.956686 0.030370 7.035232 10.651050 0.680705 -0.042805 -0.310080 0.000000 0.000000 0.000000 0.000000 0.000000 0.000000 0.000000 
24.702527 16.020890 2.260460 151.813550 -86.045431 -127.201260 -7.681262 -1.586859 2.505654 -8.613591 -6.788332 -61.571877 -0.735167 1.951813 44.385626 2.370338 10.986410 -5.772579 1.020900 -0.000001 -33.991800 12.615213 -3.838764 -1.652687 -0.528239 -7.971117 -1.031115 0.479943 -2.288764 26.685798 -0.676704 0.070204 16.332158 0.204001 0.000000 -88.837100 -11.204852 1.711849 -0.122130 -3.079417 2.287984 -2.913959 -5.320119 2.188772 1.650109 8.087414 -2.363772 -6.881316 -3.015957 -0.230241 -0.027954 0.000000 0.000000 0.000000 -7.263282 15.944990 2.118107 -52.026171 11.672469 0.177194 -4.855384 -16.997342 -0.006929 -3.734772 0.676951 -0.023709 -0.146818 -0.079489 -0.000000 0.000000 0.000000 0.000000 0.000000 0.000000 0.000000 12.500164 2.694567 2.004177 46.418605 24.149486 33.580358 1.337153 67.645191 0.030222 7.220507 10.576356 0.693386 -0.043867 -0.302297 0.000000 0.000000 0.000000 0.000000 0.000000 0.000000 0.000000 
24.508452 16.052001 2.281513 151.005286 -86.094198 -126.458662 -7.648925 -1.491267 2.427049 -8.999862 -6.717707 -60.686347 -0.783998 1.922536 44.614698 2.389323 10.911693 -6.831745 0.773400 0.000000 -33.925900 12.779210 -3.737638 -1.699124 -0.707923 -8.416736 -2.623279 0.258797 -2.462291 29.869375 -0.926394 -0.903452 18.531400 -0.097699 0.000000 -85.742000 -11.266636 1.652330 -0.014146 -3.086488 2.232970 -2.899770 -5.312123 2.133023 1.615976 8.046431 -2.354969 -6.792127 -3.014098 -0.230690 -0.005934 0.000000 0.000000 0.000000 -7.457460 15.424862 2.135686 -52.386983 10.720816 0.191111 -4.838870 -16.827073 -0.006539 -3.672167 0.722543 -0.024496 -0.143912 -0.073894 -0.000000 0.000000 0.000000 0.000000 0.000000 0.000000 0.000000 12.425826 2.580089 2.013103 46.806608 23.540365 34.475303 1.351580 67.304847 0.029951 7.386847 10.515673 0.704869 -0.044672 -0.294399 0.000000 0.000000 0.000000 0.000000 0.000000 0.000000 0.000000 
24.318037 16.086291 2.302584 150.102899 -86.162058 -125.623498 -7.615359 -1.390779 2.359217 -9.346185 -6.677063 -59.745482 -0.832778 1.882025 44.721792 2.410924 10.858247 -7.812769 0.544100 0.000000 -33.905700 12.932223 -3.600807 -1.754387 -0.820584 -8.853179 -4.279585 0.067880 -2.614158 33.087915 -1.186038 -2.094315 20.328909 -0.560500 0.000000 -81.907600 -11.286351 1.587308 0.102110 -3.083730 2.170443 -2.883946 -5.303244 2.069737 1.578414 8.000652 -2.339258 -6.692169 -3.009926 -0.231071 0.019329 0.000000 0.000000 0.000000 -7.649502 14.876762 2.157246 -52.752373 9.720008 0.334447 -4.819278 -16.729928 -0.006162 -3.617980 0.774637 -0.025579 -0.140926 -0.068100 -0.000000 0.000000 0.000000 0.000000 0.000000 0.000000 0.000000 12.331744 2.464697 2.016115 47.187346 22.874559 35.292537 1.364354 66.970723 0.029624 7.587493 10.449849 0.719047 -0.046277 -0.286255 0.000000 0.000000 0.000000 0.000000 0.000000 0.000000 0.000000 
24.130936 16.123856 2.323259 149.058334 -86.245751 -124.649116 -7.577955 -1.284037 2.301413 -9.657188 -6.668565 -58.747294 -0.880400 1.830877 44.705320 2.435838 10.836748 -8.695020 0.337200 0.000000 -33.905800 13.074932 -3.436081 -1.820404 -0.871001 -9.274451 -5.977414 -0.092266 -2.754363 36.292878 -1.443427 -3.482221 21.633342 -1.173800 -0.000001 -77.755300 -11.270991 1.517277 0.227993 -3.073258 2.101239 -2.865132 -5.294911 1.999911 1.541324 7.958975 -2.342703 -6.589054 -3.003567 -0.231306 0.045693 0.000000 0.000000 0.000000 -7.837875 14.299983 2.180518 -53.112591 8.674428 0.614905 -4.796992 -16.719512 -0.005788 -3.576368 0.825287 -0.026559 -0.137912 -0.062249 -0.000000 0.000000 0.000000 0.000000 0.000000 0.000000 0.000000 12.235288 2.322102 2.016703 47.548841 22.190095 36.045757 1.376482 66.629295 0.029207 7.784577 10.392316 0.733224 -0.047950 -0.278120 0.000000 0.000000 0.000000 0.000000 0.000000 0.000000 0.000000 
23.946842 16.164904 2.343402 147.887561 -86.341520 -123.553656 -7.538812 -1.171943 2.251974 -9.932623 -6.685322 -57.691258 -0.926757 1.770334 44.562039 2.463281 10.848040 -9.468703 0.153800 0.000000 -33.908100 13.203424 -3.252843 -1.896998 -0.855491 -9.665339 -7.698548 -0.226334 -2.892206 39.440072 -1.689423 -5.028540 22.389740 -1.901700 -0.000000 -73.680599 -11.223473 1.443889 0.363226 -3.056358 2.027114 -2.844383 -5.289599 1.925283 1.501245 7.926743 -2.357011 -6.482032 -2.996084 -0.231488 0.073302 0.000000 0.000000 0.000000 -8.021218 13.697012 2.206667 -53.456650 7.590312 1.034237 -4.773123 -16.807488 -0.005419 -3.553961 0.871052 -0.027636 -0.135005 -0.056382 -0.000000 0.000000 0.000000 0.000000 0.000000 0.000000 0.000000 12.143032 2.165272 2.013990 47.896126 21.460689 36.701430 1.388226 66.285236 0.028725 7.983015 10.339311 0.747702 -0.049774 -0.270062 0.000000 0.000000 0.000000 0.000000 0.000000 0.000000 0.000000 
